<?xml version="1.0" encoding="utf-8"?>
<!-- Generator: Adobe Illustrator 27.7.0, SVG Export Plug-In . SVG Version: 6.00 Build 0)  -->
<svg version="1.1" xmlns="http://www.w3.org/2000/svg" xmlns:xlink="http://www.w3.org/1999/xlink" x="0px" y="0px"
	 viewBox="0 0 4977.13 793.43" style="enable-background:new 0 0 4977.13 793.43;" xml:space="preserve">
<style type="text/css">
	.st0{fill:#FFFFFF;}
</style>
<g id="Background">
</g>
<g id="Artwork">
	<g>
		<path class="st0" d="M720,720h160V240H720V720z M960,160h400V0H960V160z M720,0h160v160H720V0z M480,720h160V0H480V720z M240,560
			h160V0H240V560z M0,720h160V0H0V720z M960,720h160V240H960V720z"/>
		<g>
			<path class="st0" d="M1521.08,420h131.75c34.83,0,60.84,10.07,78.46,28.11c16.78,17.2,26.85,40.7,26.85,68.39
				c0,56.64-37.34,94.83-100.28,94.83h-73.85V720h-62.94V420z M1584.02,561.82h62.94c31.89,0,48.67-17.62,48.67-44.9
				c0-28.11-17.62-44.06-47.83-44.06h-63.78V561.82z"/>
			<path class="st0" d="M1838.7,539.16h1.26c13.01-24.34,27.69-36.92,52.87-36.92c6.29,0,10.07,0.42,13.43,1.68v49.93h-1.26
				c-37.34-3.78-64.2,15.94-64.2,61.26V720h-57.06V504.76h54.96V539.16z"/>
			<path class="st0" d="M1914.22,612.59c0-64.2,45.74-113.71,112.45-113.71c66.71,0,112.45,49.51,112.45,113.71
				c0,64.2-45.73,113.71-112.45,113.71C1959.96,726.3,1914.22,676.79,1914.22,612.59z M2081.22,612.59
				c0-41.96-19.72-70.49-54.55-70.49c-35.25,0-54.55,28.53-54.55,70.49c0,41.96,19.3,70.07,54.55,70.07
				C2061.5,682.66,2081.22,654.55,2081.22,612.59z"/>
			<path class="st0" d="M2159.67,726.3h56.64c4.62,13.43,16.78,23.92,43.22,23.92c32.31,0,47.83-15.52,47.83-44.9v-23.5h-1.26
				c-12.59,14.27-28.95,25.17-56.22,25.17c-47.83,0-94.83-37.76-94.83-102.8c0-64.2,38.6-105.32,93.15-105.32
				c26.85,0,46.57,10.49,59.58,28.53h0.84v-22.66h54.97v198.88c0,30.21-9.65,50.77-25.59,65.46
				c-18.04,16.78-45.74,24.34-77.62,24.34C2201.63,793.43,2165.54,768.26,2159.67,726.3z M2310.3,602.94
				c0-31.47-16.78-58.32-51.19-58.32c-28.95,0-48.25,22.66-48.25,58.74c0,36.5,19.3,57.9,48.67,57.9
				C2295.62,661.26,2310.3,634.83,2310.3,602.94z"/>
			<path class="st0" d="M2455.47,539.16h1.26c13.01-24.34,27.69-36.92,52.87-36.92c6.29,0,10.07,0.42,13.43,1.68v49.93h-1.26
				c-37.34-3.78-64.2,15.94-64.2,61.26V720h-57.06V504.76h54.97V539.16z"/>
			<path class="st0" d="M2670.3,696.09h-0.84c-10.91,16.36-26.43,28.95-63.36,28.95c-44.06,0-75.11-23.08-75.11-65.88
				c0-47.41,38.6-62.52,86.44-69.23c35.66-5.04,52.03-7.97,52.03-24.34c0-15.52-12.17-25.59-36.08-25.59
				c-26.85,0-39.86,9.65-41.54,30.21h-50.77c1.68-37.76,29.79-70.91,92.73-70.91c64.62,0,90.63,28.95,90.63,79.3v109.51
				c0,16.36,2.52,26.01,7.55,29.79v2.1h-54.97C2673.66,715.81,2671.56,705.74,2670.3,696.09z M2670.72,644.06v-32.31
				c-10.07,5.88-25.59,9.23-39.86,12.59c-29.79,6.71-44.48,13.43-44.48,33.57c0,20.14,13.43,27.27,33.57,27.27
				C2652.68,685.18,2670.72,665.04,2670.72,644.06z"/>
			<path class="st0" d="M2760.5,504.76h54.97v28.95h1.26c11.75-19.72,32.73-34.83,62.52-34.83c27.27,0,49.09,15.11,59.58,37.76h0.84
				c14.69-23.5,37.34-37.76,64.62-37.76c45.32,0,70.91,29.37,70.91,76.36V720h-57.06V584.9c0-24.34-12.17-36.92-33.15-36.92
				c-23.92,0-38.6,18.46-38.6,46.99V720h-57.06V584.9c0-24.34-12.17-36.92-33.15-36.92c-23.08,0-38.6,18.46-38.6,46.99V720h-57.06
				V504.76z"/>
			<path class="st0" d="M3097.01,650.35h52.87c3.78,24.76,21.4,35.67,46.99,35.67c25.17,0,39.44-9.65,39.44-24.76
				c0-20.56-27.27-22.66-56.64-28.53c-38.6-7.55-76.36-18.04-76.36-65.04c0-46.57,38.6-68.81,87.69-68.81
				c56.64,0,88.11,28.11,92.31,71.33h-51.61c-2.52-23.08-17.2-31.47-41.54-31.47c-22.24,0-36.92,8.39-36.92,23.92
				c0,18.46,28.53,20.14,59.16,26.43c36.08,7.55,75.95,17.62,75.95,67.97c0,43.22-36.92,69.23-90.63,69.23
				C3135.19,726.3,3100.36,696.09,3097.01,650.35z"/>
		</g>
		<g>
			<path class="st0" d="M1521.08,0h85.6l42.38,150.63c10.49,37.76,18.88,80.98,18.88,80.98h0.84c0,0,7.97-43.22,18.46-80.98
				L1729.61,0h86.85v300h-56.64V127.97c0-24.34,2.52-62.1,2.52-62.1h-0.84c0,0-6.71,35.25-13.01,57.06L1696.88,300h-58.32
				l-50.35-177.07c-6.29-21.82-13.01-57.06-13.01-57.06h-0.84c0,0,2.52,37.76,2.52,62.1V300h-55.81V0z"/>
			<path class="st0" d="M1863.03,0h60.84v300h-60.84V0z"/>
			<path class="st0" d="M1954.92,0h241.26v51.19h-90.21V300h-60.84V51.19h-90.21V0z"/>
			<path class="st0" d="M2256.18,185.88l-70.07-101.12h65.04l38.18,61.68h0.84l36.08-61.68h59.16l-66.71,100.7L2395.48,300h-67.97
				l-39.86-71.33h-0.84L2240.23,300h-62.52L2256.18,185.88z"/>
			<path class="st0" d="M2492.39,0h85.6l42.38,150.63c10.49,37.76,18.88,80.98,18.88,80.98h0.84c0,0,7.97-43.22,18.46-80.98
				L2700.93,0h86.85v300h-56.64V127.97c0-24.34,2.52-62.1,2.52-62.1h-0.84c0,0-6.71,35.25-13.01,57.06L2668.2,300h-58.32
				l-50.35-177.07c-6.29-21.82-13.01-57.06-13.01-57.06h-0.84c0,0,2.52,37.76,2.52,62.1V300h-55.8V0z"/>
			<path class="st0" d="M2829.32,0h57.06v51.19h-57.06V0z M2829.32,84.76h57.06V300h-57.06V84.76z"/>
			<path class="st0" d="M2912.81,192.59c0-64.2,41.96-113.71,107.41-113.71c55.81,0,90.21,32.31,97.76,78.88h-55.8
				c-3.78-18.88-18.46-33.15-39.44-33.15c-34.41,0-52.03,26.43-52.03,67.97c0,40.7,16.36,67.97,51.19,67.97
				c23.08,0,39.44-12.17,43.22-36.5h54.97c-3.78,45.73-39.44,82.24-96.92,82.24C2955.19,306.3,2912.81,256.79,2912.81,192.59z"/>
			<path class="st0" d="M3199.8,119.16h1.26c13.01-24.34,27.69-36.92,52.87-36.92c6.29,0,10.07,0.42,13.43,1.68v49.93h-1.26
				c-37.34-3.78-64.2,15.94-64.2,61.26V300h-57.06V84.76h54.97V119.16z"/>
			<path class="st0" d="M3275.33,192.59c0-64.2,45.74-113.71,112.45-113.71c66.71,0,112.45,49.51,112.45,113.71
				c0,64.2-45.73,113.71-112.45,113.71C3321.06,306.3,3275.33,256.79,3275.33,192.59z M3442.32,192.59
				c0-41.96-19.72-70.49-54.55-70.49c-35.25,0-54.55,28.53-54.55,70.49c0,41.96,19.3,70.07,54.55,70.07
				C3422.6,262.66,3442.32,234.55,3442.32,192.59z"/>
			<path class="st0" d="M3531.27,0h85.6l42.38,150.63c10.49,37.76,18.88,80.98,18.88,80.98h0.84c0,0,7.97-43.22,18.46-80.98
				L3739.8,0h86.85v300h-56.64V127.97c0-24.34,2.52-62.1,2.52-62.1h-0.84c0,0-6.71,35.25-13.01,57.06L3707.07,300h-58.32
				l-50.35-177.07c-6.29-21.82-13.01-57.06-13.01-57.06h-0.84c0,0,2.52,37.76,2.52,62.1V300h-55.8V0z"/>
			<path class="st0" d="M3997,276.09h-0.84c-10.91,16.36-26.43,28.95-63.36,28.95c-44.06,0-75.11-23.08-75.11-65.88
				c0-47.41,38.6-62.52,86.44-69.23c35.66-5.04,52.03-7.97,52.03-24.34c0-15.52-12.17-25.59-36.08-25.59
				c-26.85,0-39.86,9.65-41.54,30.21h-50.77c1.68-37.76,29.79-70.91,92.73-70.91c64.62,0,90.63,28.95,90.63,79.3v109.51
				c0,16.36,2.52,26.01,7.55,29.79v2.1h-54.97C4000.36,295.81,3998.26,285.74,3997,276.09z M3997.42,224.06v-32.31
				c-10.07,5.88-25.59,9.23-39.86,12.59c-29.79,6.71-44.48,13.43-44.48,33.57c0,20.14,13.43,27.27,33.57,27.27
				C3979.38,265.18,3997.42,245.04,3997.42,224.06z"/>
			<path class="st0" d="M4073.78,230.35h52.87c3.78,24.76,21.4,35.67,46.99,35.67c25.17,0,39.44-9.65,39.44-24.76
				c0-20.56-27.27-22.66-56.64-28.53c-38.6-7.55-76.36-18.04-76.36-65.04c0-46.57,38.6-68.81,87.69-68.81
				c56.64,0,88.11,28.11,92.31,71.33h-51.61c-2.52-23.08-17.2-31.47-41.54-31.47c-22.24,0-36.92,8.39-36.92,23.92
				c0,18.46,28.53,20.14,59.16,26.43c36.08,7.55,75.95,17.62,75.95,67.97c0,43.22-36.92,69.23-90.63,69.23
				C4111.96,306.3,4077.13,276.09,4073.78,230.35z"/>
			<path class="st0" d="M4273.91,84.76h29.79V17.62h55.8v67.13h36.92v37.76h-36.92v114.13c0,15.94,8.81,21.4,21.4,21.4
				c7.13,0,16.78-0.42,16.78-0.42v41.96c0,0-13.01,0.84-35.67,0.84c-27.69,0-58.32-10.91-58.32-51.61v-126.3h-29.79V84.76z"/>
			<path class="st0" d="M4413.21,192.17c0-63.78,43.22-113.29,106.16-113.29c69.23,0,106.16,52.87,106.16,129.65h-156.09
				c4.2,33.15,22.66,53.71,54.97,53.71c22.24,0,35.25-10.07,41.54-26.43h56.22c-7.97,38.18-41.96,70.49-97.34,70.49
				C4453.49,306.3,4413.21,256.37,4413.21,192.17z M4470.28,169.09h95.67c-1.68-27.27-19.72-46.15-45.73-46.15
				C4490,122.94,4475.31,140.98,4470.28,169.09z"/>
			<path class="st0" d="M4706.92,119.16h1.26c13.01-24.34,27.69-36.92,52.87-36.92c6.29,0,10.07,0.42,13.43,1.68v49.93h-1.26
				c-37.34-3.78-64.2,15.94-64.2,61.26V300h-57.06V84.76h54.97V119.16z"/>
			<path class="st0" d="M4785.8,230.35h52.87c3.78,24.76,21.4,35.67,46.99,35.67c25.17,0,39.44-9.65,39.44-24.76
				c0-20.56-27.27-22.66-56.64-28.53c-38.6-7.55-76.36-18.04-76.36-65.04c0-46.57,38.6-68.81,87.69-68.81
				c56.64,0,88.11,28.11,92.31,71.33h-51.61c-2.52-23.08-17.2-31.47-41.54-31.47c-22.24,0-36.92,8.39-36.92,23.92
				c0,18.46,28.53,20.14,59.16,26.43c36.08,7.55,75.95,17.62,75.95,67.97c0,43.22-36.92,69.23-90.63,69.23
				C4823.98,306.3,4789.15,276.09,4785.8,230.35z"/>
		</g>
	</g>
</g>
<g id="Guides">
</g>
</svg>
